<?xml version="1.0" standalone="no"?>
<!DOCTYPE svg PUBLIC "-//W3C//DTD SVG 20010904//EN"
 "http://www.w3.org/TR/2001/REC-SVG-20010904/DTD/svg10.dtd">
<svg version="1.0" xmlns="http://www.w3.org/2000/svg"
 width="300.000000pt" height="128.000000pt" viewBox="0 0 300.000000 128.000000"
 preserveAspectRatio="xMidYMid meet">
<metadata>
Created by potrace 1.10, written by Peter Selinger 2001-2011
</metadata>
<g transform="translate(0.000000,128.000000) scale(0.100000,-0.100000)"
fill="#000000" stroke="none">
<path d="M119 1107 c-126 -67 -146 -244 -39 -341 66 -60 154 -70 238 -27 21
10 45 27 54 38 26 28 58 104 58 138 1 159 -172 265 -311 192z m181 -28 c116
-71 130 -208 30 -293 -73 -61 -170 -55 -239 16 -53 54 -69 113 -47 171 41 108
167 160 256 106z"/>
<path d="M889 1107 c-70 -37 -99 -88 -111 -193 -5 -48 -15 -99 -23 -113 -30
-59 -92 -91 -175 -91 -193 0 -296 -201 -177 -345 76 -92 218 -100 303 -17 45
44 64 88 64 149 0 97 40 171 107 199 54 23 181 18 233 -8 62 -32 82 -72 90
-180 6 -76 11 -94 36 -130 70 -100 218 -117 310 -35 51 44 65 80 74 179 5 64
13 97 27 116 27 38 99 72 151 72 103 0 183 44 223 123 31 60 24 152 -16 209
-40 56 -103 88 -172 88 -126 0 -213 -98 -213 -240 0 -55 -33 -125 -73 -154
-25 -18 -43 -21 -137 -21 -94 0 -112 3 -136 21 -53 39 -66 67 -74 156 -9 97
-18 122 -56 167 -59 71 -172 92 -255 48z m175 -28 c74 -38 105 -96 106 -199 1
-52 27 -115 61 -147 38 -35 104 -53 191 -53 153 0 216 65 232 239 10 112 78
181 178 181 160 0 239 -204 119 -308 -37 -32 -64 -42 -148 -52 -149 -19 -212
-83 -214 -217 -1 -80 -8 -98 -53 -144 -83 -83 -202 -76 -273 17 -23 31 -29 50
-34 118 -13 163 -80 226 -244 226 -82 0 -134 -16 -172 -52 -44 -43 -61 -82
-69 -163 -11 -118 -66 -189 -157 -201 -91 -13 -175 46 -197 137 -10 41 -9 55
5 93 30 78 100 126 185 126 56 0 129 26 162 57 38 36 54 75 63 154 9 90 21
121 58 157 58 56 130 67 201 31z"/>
<path d="M2912 588 c2 -15 11 -24 26 -26 18 -3 22 1 22 22 0 21 -5 26 -26 26
-21 0 -25 -4 -22 -22z"/>
<path d="M1760 575 c0 -23 4 -25 44 -25 39 0 44 3 48 25 5 24 3 25 -43 25 -46
0 -49 -2 -49 -25z"/>
<path d="M2434 592 c-6 -4 -14 -22 -17 -41 -6 -29 -5 -32 11 -26 42 17 89 17
105 0 16 -16 16 -18 -3 -45 -11 -15 -44 -50 -73 -77 -39 -35 -55 -58 -59 -81
l-5 -32 124 0 123 0 0 33 0 32 -61 -3 -61 -4 61 62 c87 88 96 143 30 177 -26
14 -157 17 -175 5z m166 -42 c25 -25 25 -41 2 -66 -62 -68 -92 -113 -90 -135
3 -21 -2 -24 -34 -27 -54 -4 -49 13 21 82 67 66 80 96 56 132 -8 13 -15 26
-15 29 0 13 42 3 60 -15z"/>
<path d="M2850 540 c0 -25 4 -30 25 -30 21 0 25 5 25 30 0 25 -4 30 -25 30
-21 0 -25 -5 -25 -30z"/>
<path d="M2970 555 c0 -8 7 -15 15 -15 8 0 15 7 15 15 0 8 -7 15 -15 15 -8 0
-15 -7 -15 -15z"/>
<path d="M2734 540 c-82 -33 -96 -185 -21 -230 38 -23 145 -28 151 -7 3 6 7
24 10 39 6 27 6 28 -37 22 -51 -7 -77 11 -77 55 0 44 31 65 86 57 34 -4 45 -3
42 7 -3 6 -17 13 -31 15 -21 3 -27 9 -27 28 0 21 -4 24 -37 23 -21 0 -48 -4
-59 -9z m56 -30 c0 -5 -5 -10 -10 -10 -6 0 -16 -11 -22 -25 -9 -19 -14 -22
-25 -14 -20 17 -16 39 10 49 30 12 47 12 47 0z m-66 -66 c3 -9 6 -26 6 -38 0
-13 12 -35 26 -50 l27 -26 -26 0 c-35 0 -57 34 -57 87 0 43 12 57 24 27z"/>
<path d="M2927 533 c-14 -13 -6 -33 13 -33 13 0 20 7 20 20 0 19 -20 27 -33
13z"/>
<path d="M1925 505 c-35 -34 -31 -53 21 -102 51 -47 45 -61 -21 -49 -34 7 -35
6 -35 -22 0 -18 6 -32 16 -36 29 -11 105 -6 134 9 25 13 30 22 30 50 0 30 -6
40 -40 63 -21 15 -38 32 -36 37 2 6 22 10 45 9 38 -1 41 1 41 26 0 31 -18 40
-88 40 -32 0 -49 -6 -67 -25z m55 -24 c0 -6 -4 -12 -10 -16 -5 -3 -6 -13 -3
-23 5 -16 4 -16 -11 -1 -10 9 -14 22 -10 32 6 18 34 24 34 8z m45 -122 c0 -15
-7 -25 -18 -27 -15 -3 -17 0 -9 15 5 10 7 24 4 32 -3 8 1 12 9 9 8 -3 14 -15
14 -29z"/>
<path d="M2183 516 c-38 -17 -63 -61 -63 -110 0 -87 41 -119 147 -114 66 3 67
3 74 34 l6 32 -57 -5 c-44 -4 -60 -2 -73 12 -9 9 -17 21 -17 26 0 5 39 9 86 9
l87 0 -6 37 c-9 54 -45 85 -104 90 -28 2 -61 -3 -80 -11z m95 -63 c3 -20 -1
-23 -32 -23 -38 0 -47 15 -24 38 20 20 53 10 56 -15z m-92 -45 c-4 -25 -2 -46
5 -54 17 -21 4 -28 -15 -9 -23 23 -30 62 -17 91 17 38 34 19 27 -28z"/>
<path d="M1760 436 c0 -46 -3 -98 -6 -115 l-6 -31 50 0 51 0 3 115 3 115 -47
0 -48 0 0 -84z m60 -13 c0 -27 -3 -58 -6 -70 -12 -44 -22 -22 -22 47 0 53 4
70 14 70 10 0 14 -14 14 -47z"/>
<path d="M2430 160 c-23 -23 -24 -33 -10 -61 14 -26 66 -26 80 0 14 28 13 31
-15 31 -26 0 -34 -14 -12 -24 6 -3 1 -4 -13 -3 -18 1 -25 8 -25 22 0 16 6 20
33 19 36 -2 42 10 13 26 -26 13 -28 13 -51 -10z"/>
<path d="M250 160 c0 -5 7 -10 15 -10 10 0 15 -11 15 -35 0 -19 5 -35 10 -35
6 0 10 16 10 35 0 24 5 35 15 35 8 0 15 5 15 10 0 6 -18 10 -40 10 -22 0 -40
-4 -40 -10z"/>
<path d="M520 125 c0 -43 1 -45 30 -45 17 0 30 5 30 10 0 6 -9 10 -20 10 -11
0 -20 5 -20 10 0 6 7 10 15 10 21 0 19 18 -2 23 -14 4 -12 5 5 6 33 2 27 21
-8 21 -29 0 -30 -2 -30 -45z"/>
<path d="M782 158 c-15 -15 -16 -50 0 -66 16 -16 68 -15 68 1 0 7 -12 13 -27
12 -22 0 -29 5 -31 23 -3 21 0 23 27 20 17 -1 32 2 33 7 4 15 -55 18 -70 3z"/>
<path d="M1040 125 c0 -25 5 -45 10 -45 6 0 10 9 10 20 0 13 7 20 20 20 13 0
20 -7 20 -20 0 -11 5 -20 10 -20 6 0 10 20 10 45 0 25 -4 45 -10 45 -5 0 -10
-7 -10 -15 0 -8 -9 -15 -20 -15 -11 0 -20 7 -20 15 0 8 -4 15 -10 15 -5 0 -10
-20 -10 -45z"/>
<path d="M1314 125 c-1 -33 3 -45 14 -45 10 0 12 7 8 25 -8 32 1 32 36 -2 l28
-27 0 47 c0 26 -4 47 -10 47 -5 0 -10 -9 -10 -20 0 -11 -4 -20 -8 -20 -5 0
-17 9 -27 20 -26 29 -30 25 -31 -25z"/>
<path d="M1602 158 c-7 -7 -12 -21 -12 -33 0 -29 19 -45 52 -45 36 0 56 36 39
69 -13 23 -59 29 -79 9z m61 -20 c7 -21 -4 -38 -23 -38 -23 0 -34 16 -26 35 7
18 43 20 49 3z"/>
<path d="M1870 125 l0 -45 41 0 c24 0 38 4 34 10 -3 6 -17 10 -30 10 -22 0
-23 3 -18 35 4 28 2 35 -11 35 -12 0 -16 -10 -16 -45z"/>
<path d="M2142 158 c-16 -16 -15 -53 2 -67 8 -7 27 -11 43 -9 25 3 28 7 28 43
0 37 -2 40 -30 43 -17 2 -36 -3 -43 -10z m58 -33 c0 -18 -5 -25 -19 -25 -11 0
-23 5 -26 10 -11 18 3 40 25 40 15 0 20 -7 20 -25z"/>
<path d="M2713 125 c24 -48 37 -57 37 -23 0 12 7 30 17 40 22 25 8 36 -17 13
-18 -16 -20 -16 -26 -1 -3 9 -12 16 -20 16 -10 0 -8 -11 9 -45z"/>
</g>
</svg>
