<?xml version="1.0" standalone="no"?>
<!DOCTYPE svg PUBLIC "-//W3C//DTD SVG 20010904//EN"
 "http://www.w3.org/TR/2001/REC-SVG-20010904/DTD/svg10.dtd">
<svg version="1.0" xmlns="http://www.w3.org/2000/svg"
 width="350.000000pt" height="163.000000pt" viewBox="0 0 350.000000 163.000000"
 preserveAspectRatio="xMidYMid meet">
<metadata>
Created by potrace 1.13, written by Peter Selinger 2001-2015
</metadata>
<g transform="translate(0.000000,163.000000) scale(0.100000,-0.100000)"
fill="#000000" stroke="none">
<path d="M748 1393 c-2 -22 -9 -29 -35 -34 -74 -15 -157 -88 -178 -156 l-6
-23 231 0 231 0 -6 23 c-21 69 -102 141 -178 156 -25 5 -32 12 -32 31 0 34
-23 37 -27 3z"/>
<path d="M440 971 c0 -6 15 -11 33 -13 l32 -3 3 -68 c3 -80 -25 -657 -33 -665
-2 -3 -22 -8 -42 -11 -21 -4 -37 -11 -35 -16 3 -13 271 -13 275 0 1 6 -13 11
-31 13 -23 2 -35 10 -41 25 -4 12 -6 106 -3 210 l4 187 158 0 157 0 7 -200 c4
-109 5 -204 1 -210 -3 -5 -17 -10 -30 -10 -32 0 -56 -10 -49 -21 7 -12 334
-10 334 2 0 5 -11 9 -25 9 -30 0 -29 -1 -9 50 l16 40 67 0 c67 0 67 0 84 -35
23 -49 22 -55 -13 -55 -16 0 -30 -4 -30 -10 0 -6 65 -10 175 -10 110 0 175 4
175 10 0 6 -11 10 -25 10 -24 0 -25 2 -25 75 0 83 7 93 53 76 29 -11 42 -35
52 -94 5 -28 14 -43 38 -58 29 -18 47 -19 192 -16 164 4 202 12 234 51 35 42
-3 110 -67 122 l-35 7 34 14 c18 8 41 21 51 30 44 39 0 103 -74 109 -116 9
-218 11 -218 3 0 -5 9 -9 20 -9 19 0 20 -7 20 -155 0 -147 -1 -155 -19 -155
-11 0 -23 4 -26 10 -10 16 -35 12 -35 -6 0 -30 -27 4 -35 44 -6 31 -31 92 -38
92 -1 0 -20 7 -42 15 -34 12 -36 14 -14 15 40 0 93 41 97 73 4 33 -12 55 -48
69 -30 11 -260 18 -260 7 0 -4 10 -9 23 -11 22 -3 22 -6 25 -155 l3 -153 -41
0 -41 0 -80 165 c-43 91 -81 165 -84 165 -2 0 -39 -72 -81 -160 -77 -161 -94
-181 -122 -147 -13 15 -49 694 -39 721 4 10 18 16 37 16 16 0 30 5 30 10 0 6
-48 10 -125 10 -77 0 -125 -4 -125 -10 0 -5 16 -10 35 -10 42 0 42 1 50 -172
l5 -128 -155 0 -155 0 0 131 c0 72 5 139 10 150 7 12 21 19 40 19 17 0 30 5
30 10 0 6 -48 10 -125 10 -71 0 -125 -4 -125 -9z m1606 -632 c26 -21 34 -55
23 -89 -13 -37 -36 -50 -83 -50 l-36 0 0 81 0 82 40 -6 c23 -3 48 -11 56 -18z"/>
<path d="M2283 505 c-191 -97 -82 -348 140 -322 171 21 227 213 89 311 -32 23
-54 29 -109 33 -59 4 -75 1 -120 -22z m161 -6 c42 -33 58 -74 58 -148 0 -103
-26 -146 -94 -157 -99 -17 -168 113 -127 237 28 82 104 114 163 68z"/>
<path d="M2620 519 c0 -4 9 -9 21 -11 19 -3 20 -9 20 -153 0 -144 -1 -150 -20
-153 -12 -2 -21 -8 -21 -13 0 -5 38 -9 85 -9 50 0 85 4 85 10 0 6 -11 10 -25
10 -25 0 -25 1 -25 81 l0 82 33 -7 c37 -7 67 -38 67 -71 0 -61 45 -105 108
-105 29 0 58 21 45 33 -12 13 -33 7 -33 -9 0 -28 -28 3 -35 39 -15 77 -49 116
-102 118 -10 0 3 7 28 14 56 18 82 44 77 81 -5 49 -49 65 -188 68 -66 1 -120
-1 -120 -5z"/>
</g>
</svg>
